<svg id="Layer_1" data-name="Layer 1" xmlns="http://www.w3.org/2000/svg" viewBox="0 0 402 400"><defs><style>.cls-1{fill:#16a6b1;}.cls-2{fill:#158998;}.cls-3{fill:#246a6e;}.cls-4{fill:#ef7f0f;}.cls-5{fill:#ef800f;}.cls-6{fill:#3592bb;}.cls-7{fill:#3293ba;}.cls-8{fill:#e9e3c9;}.cls-9{fill:#34484f;}.cls-10{fill:#73c7da;}.cls-11{fill:#50b5cb;}.cls-12{fill:#2c8280;}.cls-13{fill:#3c3c3b;}.cls-14{fill:#da5423;}.cls-15{fill:#8a8988;}</style></defs><path class="cls-1" d="M124.8,259.5c.52.39.36.85.24,1.37-1,4.26-10.65,35.41-14,46.88-2,7-8.46,23.34-9.34,25.22-4.51-4.09-4.48-48.87,0-60.66.16-1,11.52-6.39,15.84-8.82C119.94,262.13,122.38,260.83,124.8,259.5Z"/><path class="cls-2" d="M187.84,203.64c0,.7-8,18.26-8.27,18.83-4.29,8-5.25,16.54-9.47,24.6-2.53,4.84-28.72,41.12-30.7,44a167.5,167.5,0,0,1-23,31.41c-3.35,3.68-11,10.5-14.71,10.5-.87-.09,23.09-73.47,23.09-73.47s10.34-6.27,15.32-9.67C146.67,245.35,187.84,203.64,187.84,203.64Z"/><path class="cls-3" d="M200.71,156.89c6.41,69.93-103,117.68-113,121.91a.27.27,0,0,1-.34-.39C94.38,266,194.62,90.54,200.71,156.89Z"/><path class="cls-4" d="M251.18,100.66s-47.31-1.07-63,.31c-8.91.78-17.26,1.63-19.54,5.9-1.16,2.19,1.83,7,3.32,8.75,2.73,3.17,12.38,10.58,12.38,10.58s11.79-6.41,19.87-9.23,23.36-3.22,23.36-3.22Z"/><path class="cls-5" d="M239.72,210.89a132.44,132.44,0,0,1-32.05,46.83c-25.91,24.29-68.33,33.43-68.33,33.43s28.89-49.23,42.34-77.35c7.06-9,11.89-24.05,12.94-27.52,4.44-14.77.14-24.76,1.57-31.92a25.35,25.35,0,0,1,3.74-8.91h37.81C239.78,149.88,252.49,179.86,239.72,210.89Z"/><path class="cls-6" d="M257.38,119.77l-.49,2.84s-3.52-.42-8.93-1c-10.12-1-37.55,8-48.08,24.18-1.81,2.77-3.79,9.59-3.8,9.66-6-7.69-17.09-12.94-29.14-12.48,12.35-19.38,42.84-35.22,73.5-28.71,1.35.28,8.71.51,16.17.88A33.42,33.42,0,0,1,257.38,119.77Z"/><path class="cls-7" d="M254.05,100.79c-20.64-.39-38.56-.69-52.6-.46-14.23.24-33.79,2.33-33,7.84.36,2.59,2.12,5,3.37,7.25-13.79,8.56-26.48,18.64-35.56,30a133,133,0,0,1,1.45-22c5.33-38.7,30.81-56.23,63.63-55.48,18.91.44,34.88,8.58,45.15,20.89A53.85,53.85,0,0,1,254.05,100.79Z"/><circle cx="216.91" cy="101.29" r="7.94"/><path class="cls-8" d="M257.2,121.75c-19.27,8-19.72,23.14-19.72,23.14l.26.56H199.93c10.47-16.14,37.78-25.38,47.84-24.4C253.15,121.58,258.42,121.25,257.2,121.75Z"/><path d="M254.38,99.57a1.84,1.84,0,0,0-1.13.21l-24.07,13-.06,0c-3.15,1.14-.66,1.59.23,1.86l26,8.15a.38.38,0,0,0,.21,0l83.59-11.43a.4.4,0,0,0,0-.8Z"/><path class="cls-9" d="M339,110.32l-85.42-10.9a.47.47,0,0,0-.26,0l-24.5,13.59a.4.4,0,0,0,.21.76L339,111.13A.41.41,0,0,0,339,110.32Z"/><path class="cls-8" d="M166.93,143h.23c-2.57,1.31-30.64,12.49-30.64,12.49l-.29-10.11,0,0c9.08-11.32,21.75-21.39,35.53-29.94h0l.17.21c2.73,3.17,12.39,10.57,12.39,10.57S170.92,137,166.93,143Z"/><path class="cls-10" d="M90.62,241.91c.16-3,9.58-50.18,28.82-72.73,5.39-7.22,16.92-19.18,30.87-23.73,19.84-6.47,24.27-4.68,31.28-1.65,0,.95-63.8,90.83-64.87,93.41C116.43,237.38,97.1,241.26,90.62,241.91Z"/><path class="cls-11" d="M196.32,156.56c2.27,13.09-3,23.64-14.73,39.94-22.29,31.05-43.74,35.35-65.06,40.89,1.07-2.57,64.27-92.5,64.85-93.66C192.34,148,196.09,155.19,196.32,156.56Z"/><path class="cls-12" d="M116.72,237.21c-.1.93-27.87,42.08-29.42,41.54s2.86-34.65,3.32-36.84C97.1,241.26,114.51,237.65,116.72,237.21Z"/><path class="cls-13" d="M218.81,268.49c1.5-1,3-2.07,4.52-3.05l40.86-26.38q4.43-2.85,8.87-5.65c1.24-.77,2.51-1.5,3.8-2.17,1.66-.84,2.2-.67,3.3.86a10.5,10.5,0,0,1,1.62,3.57c.75,2.89.31,4.15-2.24,5.7-5.42,3.32-10.85,6.61-16.1,10.2a33.57,33.57,0,0,0-5.56,4.6,5.32,5.32,0,0,0-.92,1.2,1,1,0,0,0,.54,1.43,5,5,0,0,0,2.15.32c6.5.12,13,.41,19.47.92,1,.08,2,.28,3.05.35a1.94,1.94,0,0,1,2,1.95,9.35,9.35,0,0,1,0,2.18c-.24,2.05-.88,2.71-2.94,2.78-7.52.26-15,.92-22.51,1.5a143.24,143.24,0,0,0-16.51,2,17.8,17.8,0,0,0-7.51,3.38l-7,5.26a3.58,3.58,0,0,1-1.5.86c0-1,0-2,0-3,.15-3-1.35-5.12-3.59-6.77A25.39,25.39,0,0,0,218.81,268.49Z"/><path class="cls-13" d="M196,301.17a42.67,42.67,0,0,0-6.27,4.38Q172.34,318.63,155,331.81c-1.4,1.05-2.75,2.18-4.19,3.18-2,1.43-3.42,1.38-5-.37a23.43,23.43,0,0,1-5.34-9.2c-.67-2.19-.25-3.16,1.64-4.5q15.3-10.8,30.6-21.59c.8-.57,1.88-.93,2-2.13a2.75,2.75,0,0,0,2.35-.87,58.17,58.17,0,0,1,7-4.85,7.67,7.67,0,0,1,9.09,1.26A10.76,10.76,0,0,1,196,301.17Z"/><path class="cls-14" d="M196,301.17a10.76,10.76,0,0,0-2.9-8.43,7.67,7.67,0,0,0-9.09-1.26,58.17,58.17,0,0,0-7,4.85,2.75,2.75,0,0,1-2.35.87,14.09,14.09,0,0,1,3.9-10.33c1.55-1.71,1.59-1.85.35-3.72-1.08-1.64-2.27-3.2-3.37-4.83a1.73,1.73,0,0,0-1.43-.84,22.53,22.53,0,0,0,7.15-3.4,3,3,0,0,1,2.06-.48c2.58,6.16,7.79,8.35,13.87,9.21a2.41,2.41,0,0,0,1.17.94c4,2.05,5.95,5.41,6.48,9.74a1.64,1.64,0,0,0,.42,1.2,8.82,8.82,0,0,1-4.44,6.62,6.12,6.12,0,0,1-3.77.78A1.07,1.07,0,0,1,196,301.17Z"/><path class="cls-14" d="M218.81,268.49a25.39,25.39,0,0,1,3.81,2c2.24,1.65,3.74,3.79,3.59,6.77-.05,1,0,2,0,3a10.85,10.85,0,0,1-4.43,6.51,4.07,4.07,0,0,1-3.27.83l-.37-.45,0-.91a6.86,6.86,0,0,0-.31-5.08c-1.57-4.29-6.65-7-11-4.44-.87.52-1.75,1-2.63,1.53-.56.31-1.12.77-1.75.1a8.28,8.28,0,0,0-2.35-8.32c-1.24-1.31-2.41-2.69-3.61-4a28.56,28.56,0,0,1,6.49-4.69c.47.58.63,1.42,1.42,1.75a10.47,10.47,0,0,0,5.52,3.62A70.67,70.67,0,0,0,218.81,268.49Z"/><path class="cls-13" d="M202.43,278.35c.63.67,1.19.21,1.75-.1.88-.5,1.76-1,2.63-1.53,4.31-2.6,9.39.15,11,4.44a6.86,6.86,0,0,1,.31,5.08c-.93-.11-1.42.63-2.05,1.06-3.59,2.45-7.15,4.92-10.73,7.39a1.64,1.64,0,0,1-.42-1.2c-.53-4.33-2.52-7.69-6.48-9.74a2.34,2.34,0,0,1-1.16-.94,14.33,14.33,0,0,1,3.21-2.24A4.79,4.79,0,0,0,202.43,278.35Z"/><path class="cls-15" d="M218.1,287.15l.37.45C218.18,287.59,218,287.46,218.1,287.15Z"/></svg>